<?xml version="1.0" encoding="UTF-8" standalone="no"?>
<!DOCTYPE svg PUBLIC "-//W3C//DTD SVG 1.1//EN" "http://www.w3.org/Graphics/SVG/1.1/DTD/svg11.dtd">
<svg width="100%" height="100%" viewBox="0 0 252 452" version="1.1" xmlns="http://www.w3.org/2000/svg" xmlns:xlink="http://www.w3.org/1999/xlink" xml:space="preserve" xmlns:serif="http://www.serif.com/" style="fill-rule:evenodd;clip-rule:evenodd;stroke-linejoin:round;stroke-miterlimit:2;">
    <g id="ArtBoard1" transform="matrix(0.980197,0,0,1.00611,-248.367,-0.612974)">
        <rect x="253.384" y="0.609" width="256.596" height="448.667" style="fill:none;"/>
        <g transform="matrix(1.0202,0,0,0.993926,-9.91097,3.33464)">
            <path d="M463.794,210.826C460.723,184.57 445.062,157.714 418.502,133.163C394.645,111.111 363.228,99.215 334.47,101.338C314.391,102.82 297.406,111.008 286.645,124.39C267.557,148.127 270.35,185.472 293.755,219.562C319.565,259.854 312.494,304.824 306.256,344.506C302.527,368.22 299.308,388.7 303.195,405.9C307.792,426.238 321.914,438.556 346.368,443.556C351.775,444.661 356.904,445.213 361.75,445.213C374.229,445.212 384.817,441.552 393.344,434.265C411.281,418.939 418.987,389.028 416.903,342.824C415.223,305.579 439.31,277.544 444.156,272.302C459.513,255.688 466.487,233.856 463.794,210.826Z" style="fill:white;fill-rule:nonzero;"/>
        </g>
        <g transform="matrix(1.0202,0,0,0.993926,-9.91097,3.33464)">
            <path d="M463.794,210.826C460.724,184.57 445.062,157.714 418.502,133.163C394.645,111.111 363.228,99.215 334.47,101.338C330.73,101.614 327.1,102.124 323.595,102.855C344.644,106.828 365.564,117.398 382.618,133.163C409.178,157.714 424.84,184.569 427.91,210.826C430.604,233.856 423.629,255.688 408.272,272.301C403.427,277.543 379.34,305.579 381.019,342.823C383.103,389.026 375.397,418.937 357.46,434.264C353.025,438.054 348.028,440.853 342.503,442.677C343.763,442.99 345.049,443.285 346.369,443.555C351.776,444.66 356.905,445.212 361.751,445.212C374.23,445.212 384.818,441.551 393.345,434.264C411.282,418.937 418.988,389.027 416.904,342.823C415.224,305.578 439.311,277.543 444.157,272.301C459.513,255.688 466.487,233.856 463.794,210.826Z" style="fill:rgb(229,229,229);fill-rule:nonzero;"/>
        </g>
        <g transform="matrix(1.0202,0,0,0.993926,-9.91097,3.33464)">
            <path d="M334.83,47.566C334.334,34.93 330.283,23.101 323.427,14.256C315.993,4.669 306.17,-0.386 295.763,0.024C285.357,0.433 275.959,6.243 269.301,16.383C263.159,25.738 260.049,37.849 260.546,50.485C261.043,63.121 265.093,74.95 271.95,83.795C279.104,93.022 288.473,98.05 298.443,98.05C298.832,98.05 299.222,98.043 299.613,98.027C310.019,97.618 319.417,91.808 326.075,81.668C332.217,72.312 335.326,60.201 334.83,47.566Z" style="fill:white;fill-rule:nonzero;"/>
        </g>
        <g transform="matrix(1.0202,0,0,0.993926,-9.91097,3.33464)">
            <path d="M334.83,47.565C334.334,34.929 330.283,23.1 323.427,14.255C315.993,4.668 306.17,-0.388 295.763,0.023C289.474,0.27 283.559,2.503 278.388,6.458C281.209,8.571 283.845,11.176 286.233,14.255C293.09,23.099 297.14,34.929 297.636,47.565C298.132,60.201 295.023,72.312 288.881,81.667C286.247,85.677 283.181,88.998 279.797,91.587C285.428,95.805 291.799,98.048 298.442,98.048C298.831,98.048 299.221,98.041 299.612,98.025C310.018,97.616 319.416,91.806 326.074,81.666C332.217,72.312 335.326,60.201 334.83,47.565Z" style="fill:rgb(229,229,229);fill-rule:nonzero;"/>
        </g>
        <g transform="matrix(1.0202,0,0,0.993926,-9.91097,3.33464)">
            <path d="M388.359,51.896C388.043,43.843 385.436,36.273 381.022,30.579C376.104,24.236 369.257,20.76 362.222,21.032C348.268,21.58 337.886,35.996 338.588,53.852C338.904,61.905 341.511,69.475 345.925,75.169C350.662,81.278 357.192,84.731 363.947,84.731C364.206,84.731 364.466,84.726 364.725,84.716C378.68,84.167 389.062,69.751 388.359,51.896Z" style="fill:white;fill-rule:nonzero;"/>
        </g>
        <g transform="matrix(1.0202,0,0,0.993926,-9.91097,3.33464)">
            <path d="M388.359,51.896C388.043,43.843 385.436,36.273 381.022,30.579C376.104,24.236 369.257,20.761 362.222,21.032C358.64,21.173 355.296,22.233 352.312,24.025C355.025,25.625 357.517,27.832 359.647,30.578C364.062,36.272 366.667,43.843 366.984,51.895C367.505,65.166 361.902,76.531 353.262,81.72C356.582,83.678 360.229,84.73 363.946,84.73C364.205,84.73 364.464,84.725 364.724,84.715C378.68,84.167 389.062,69.751 388.359,51.896Z" style="fill:rgb(229,229,229);fill-rule:nonzero;"/>
        </g>
        <g transform="matrix(1.0202,0,0,0.993926,-9.91097,3.33464)">
            <path d="M419.348,44.087C405.611,41.592 392.341,53.407 389.147,70.987C387.706,78.916 388.605,86.871 391.677,93.389C395.1,100.649 401.032,105.535 407.953,106.793C409.133,107.008 410.323,107.113 411.515,107.113C417.31,107.113 423.128,104.611 427.904,99.973C433.073,94.953 436.714,87.822 438.154,79.893C441.348,62.312 433.088,46.585 419.348,44.087Z" style="fill:white;fill-rule:nonzero;"/>
        </g>
        <g transform="matrix(1.0202,0,0,0.993926,-9.91097,3.33464)">
            <path d="M419.348,44.087C413.952,43.107 408.631,44.343 403.962,47.262C412.841,53.206 417.505,65.965 414.973,79.894C413.533,87.823 409.893,94.954 404.723,99.974C403.286,101.37 401.752,102.569 400.155,103.568C402.527,105.177 405.157,106.287 407.953,106.795C409.133,107.01 410.323,107.115 411.515,107.115C417.31,107.115 423.128,104.613 427.904,99.975C433.073,94.955 436.714,87.824 438.154,79.895C441.348,62.312 433.088,46.585 419.348,44.087Z" style="fill:rgb(229,229,229);fill-rule:nonzero;"/>
        </g>
        <g transform="matrix(1.0202,0,0,0.993926,-9.91097,3.33464)">
            <path d="M481.671,102.681C480.584,94.728 476.389,88.288 470.163,85.012C457.805,78.511 441.606,85.805 433.286,101.618C424.966,117.432 428.131,134.913 440.489,141.416C443.546,143.024 446.837,143.788 450.187,143.788C460.379,143.788 471.104,136.712 477.367,124.809C481.119,117.679 482.648,109.82 481.671,102.681Z" style="fill:white;fill-rule:nonzero;"/>
        </g>
        <g transform="matrix(1.0202,0,0,0.993926,-9.91097,3.33464)">
            <path d="M481.671,102.681C480.584,94.728 476.389,88.289 470.163,85.012C463.758,81.642 456.322,81.986 449.485,85.295C455.433,88.648 459.438,94.944 460.496,102.681C461.472,109.82 459.944,117.679 456.191,124.81C452.182,132.43 446.342,138.057 439.986,141.131C440.154,141.225 440.318,141.326 440.489,141.416C443.546,143.024 446.837,143.788 450.187,143.788C460.379,143.788 471.104,136.712 477.367,124.809C481.119,117.679 482.648,109.82 481.671,102.681Z" style="fill:rgb(229,229,229);fill-rule:nonzero;"/>
        </g>
        <g transform="matrix(1.0202,0,0,0.993926,-9.91097,3.33464)">
            <path d="M501.849,137.625C497.345,133.461 490.871,131.879 484.084,133.288C478.119,134.524 472.3,137.947 467.699,142.924C463.098,147.901 460.143,153.971 459.378,160.014C458.508,166.889 460.592,173.221 465.095,177.383C468.653,180.672 473.204,182.261 478.047,182.261C485.244,182.261 493.085,178.748 499.244,172.084C503.845,167.107 506.8,161.038 507.565,154.993C508.436,148.118 506.351,141.788 501.849,137.625Z" style="fill:white;fill-rule:nonzero;"/>
        </g>
        <g transform="matrix(1.0202,0,0,0.993926,-9.91097,3.33464)">
            <path d="M501.849,137.625C497.345,133.461 490.871,131.879 484.084,133.288C482.337,133.65 480.607,134.221 478.912,134.942C480.297,135.663 481.583,136.557 482.737,137.625C487.241,141.788 489.324,148.118 488.454,154.994C487.69,161.039 484.734,167.108 480.133,172.085C476.783,175.709 472.937,178.392 468.968,180.094C471.729,181.539 474.819,182.261 478.048,182.261C485.245,182.261 493.086,178.748 499.245,172.085C503.846,167.108 506.801,161.039 507.566,154.994C508.436,148.118 506.351,141.788 501.849,137.625Z" style="fill:rgb(229,229,229);fill-rule:nonzero;"/>
        </g>
    </g>
</svg>
