<svg fill="#FFFFFF" id="Icon_ionic-ios-arrow-dropleft" data-name="Icon ionic-ios-arrow-dropleft" xmlns="http://www.w3.org/2000/svg" width="29.25" height="29.25" viewBox="0 0 29.25 29.25">
  <path id="Path_29" data-name="Path 29" d="M12.564,10.378a1.362,1.362,0,0,1,1.92,0l6.708,6.729a1.356,1.356,0,0,1,.042,1.87l-6.609,6.63A1.355,1.355,0,1,1,12.7,23.7L18.315,18l-5.759-5.7A1.356,1.356,0,0,1,12.564,10.378Z" transform="translate(-1.124 -3.375)"/>
  <path id="Path_30" data-name="Path 30" d="M18,3.375A14.625,14.625,0,1,1,3.375,18,14.623,14.623,0,0,1,18,3.375ZM9.253,26.747A12.37,12.37,0,1,0,26.747,9.253,12.37,12.37,0,1,0,9.253,26.747Z" transform="translate(-3.375 -3.375)"/>
</svg>
