<?xml version="1.0" encoding="UTF-8" standalone="no"?>
<!-- Created with Inkscape (http://www.inkscape.org/) -->

<svg
   xmlns:dc="http://purl.org/dc/elements/1.1/"
   xmlns:cc="http://creativecommons.org/ns#"
   xmlns:rdf="http://www.w3.org/1999/02/22-rdf-syntax-ns#"
   xmlns:svg="http://www.w3.org/2000/svg"
   xmlns="http://www.w3.org/2000/svg"
   xmlns:xlink="http://www.w3.org/1999/xlink"
   xmlns:sodipodi="http://sodipodi.sourceforge.net/DTD/sodipodi-0.dtd"
   xmlns:inkscape="http://www.inkscape.org/namespaces/inkscape"
   id="svg2"
   version="1.1"
   inkscape:version="0.91 r13725"
   xml:space="preserve"
   width="435.92331"
   height="810"
   viewBox="0 0 435.92331 810"
   sodipodi:docname="publicdomainq-strong_smartphone-mobile-phone.svg"
   inkscape:export-filename="F:\_GRAFIKA\Publicdomainq\publicdomainq-strong_smartphone-mobile-phone.png"
   inkscape:export-xdpi="88.888885"
   inkscape:export-ydpi="88.888885"><title
     id="title4323">Smartphone with touch display</title><metadata
     id="metadata8"><rdf:RDF><cc:Work
         rdf:about=""><dc:format>image/svg+xml</dc:format><dc:type
           rdf:resource="http://purl.org/dc/dcmitype/StillImage" /><dc:title>Smartphone with touch display</dc:title><cc:license
           rdf:resource="http://creativecommons.org/publicdomain/zero/1.0/" /><dc:subject><rdf:Bag><rdf:li>smartphone</rdf:li><rdf:li>phone</rdf:li><rdf:li>call</rdf:li><rdf:li>touch</rdf:li><rdf:li>display</rdf:li><rdf:li>cellphone</rdf:li><rdf:li>cellular</rdf:li><rdf:li>GSM</rdf:li><rdf:li>smart</rdf:li></rdf:Bag></dc:subject><dc:description>This image was adapted from a picture posted to publicdomainq.net. All of the images on these sites are in the public domain i.e. CC0. This site is only in Japanese but can be easily navigated with Google Translate.</dc:description></cc:Work><cc:License
         rdf:about="http://creativecommons.org/publicdomain/zero/1.0/"><cc:permits
           rdf:resource="http://creativecommons.org/ns#Reproduction" /><cc:permits
           rdf:resource="http://creativecommons.org/ns#Distribution" /><cc:permits
           rdf:resource="http://creativecommons.org/ns#DerivativeWorks" /></cc:License></rdf:RDF></metadata><defs
     id="defs6"><linearGradient
       inkscape:collect="always"
       xlink:href="#linearGradient4075"
       id="linearGradient5454"
       gradientUnits="userSpaceOnUse"
       gradientTransform="translate(-2.7821159,-3.1473236)"
       x1="60.8181"
       y1="66.808678"
       x2="61.861088"
       y2="66.808678" /><linearGradient
       id="linearGradient4075"><stop
         id="stop4077"
         offset="0"
         style="stop-color:#c5c5c5;stop-opacity:1;" /><stop
         id="stop4079"
         offset="1"
         style="stop-color:#6f6f6f;stop-opacity:1;" /></linearGradient><linearGradient
       inkscape:collect="always"
       xlink:href="#linearGradient4075"
       id="linearGradient5456"
       gradientUnits="userSpaceOnUse"
       gradientTransform="translate(-2.7821159,-3.1473236)"
       x1="122.13287"
       y1="74.151352"
       x2="120.84787"
       y2="74.151352" /><linearGradient
       inkscape:collect="always"
       xlink:href="#linearGradient3798"
       id="linearGradient5458"
       gradientUnits="userSpaceOnUse"
       gradientTransform="translate(-2.7821159,-3.1473236)"
       x1="114.84153"
       y1="129.82272"
       x2="69.547523"
       y2="51.371208" /><linearGradient
       id="linearGradient3798"><stop
         id="stop3800"
         offset="0"
         style="stop-color:#e8e8e8;stop-opacity:1;" /><stop
         id="stop3802"
         offset="1"
         style="stop-color:#f0f0f0;stop-opacity:1;" /></linearGradient><radialGradient
       inkscape:collect="always"
       xlink:href="#linearGradient3956"
       id="radialGradient5460"
       gradientUnits="userSpaceOnUse"
       gradientTransform="translate(88.38415,-0.42151398)"
       cx="14.955357"
       cy="36.205524"
       fx="14.955357"
       fy="36.205524"
       r="1.2723215" /><linearGradient
       id="linearGradient3956"><stop
         style="stop-color:#1a1a1a;stop-opacity:1;"
         offset="0"
         id="stop3958" /><stop
         style="stop-color:#545454;stop-opacity:1;"
         offset="1"
         id="stop3960" /></linearGradient><radialGradient
       inkscape:collect="always"
       xlink:href="#linearGradient3916"
       id="radialGradient5462"
       gradientUnits="userSpaceOnUse"
       gradientTransform="matrix(2.5507387,7.6316299e-6,-3.2648178e-7,0.10912082,-144.51385,31.535098)"
       cx="91.383926"
       cy="35.915051"
       fx="91.383926"
       fy="35.915051"
       r="5.9151788" /><linearGradient
       id="linearGradient3916"><stop
         id="stop3918"
         offset="0"
         style="stop-color:#e1e1e1;stop-opacity:1;" /><stop
         style="stop-color:#cecece;stop-opacity:0.49803922;"
         offset="0.46952388"
         id="stop3920" /><stop
         id="stop3922"
         offset="1"
         style="stop-color:#838383;stop-opacity:0;" /></linearGradient><linearGradient
       inkscape:collect="always"
       xlink:href="#linearGradient3862"
       id="linearGradient5464"
       gradientUnits="userSpaceOnUse"
       gradientTransform="translate(-2.8012563,-3.1473236)"
       x1="91.588783"
       y1="39.467884"
       x2="91.588783"
       y2="38.336407" /><linearGradient
       id="linearGradient3862"><stop
         style="stop-color:#797979;stop-opacity:1;"
         offset="0"
         id="stop3864" /><stop
         style="stop-color:#cecece;stop-opacity:1;"
         offset="1"
         id="stop3866" /></linearGradient><linearGradient
       inkscape:collect="always"
       xlink:href="#linearGradient5378"
       id="linearGradient5466"
       gradientUnits="userSpaceOnUse"
       gradientTransform="matrix(1.0219055,0,0,1.0219055,-4.9860947,-6.2862203)"
       x1="94.140694"
       y1="149.84216"
       x2="90.737869"
       y2="140.39703" /><linearGradient
       id="linearGradient5378"><stop
         id="stop5380"
         offset="0"
         style="stop-color:#bfbfbf;stop-opacity:1;" /><stop
         id="stop5382"
         offset="1"
         style="stop-color:#ececec;stop-opacity:1;" /></linearGradient><linearGradient
       inkscape:collect="always"
       xlink:href="#linearGradient3940"
       id="linearGradient5468"
       gradientUnits="userSpaceOnUse"
       gradientTransform="matrix(1.0029404,0,0,1.0029404,-3.0508233,-3.417016)"
       x1="132.00436"
       y1="125.7994"
       x2="59.635567"
       y2="53.430603" /><linearGradient
       id="linearGradient3940"><stop
         style="stop-color:#e0e0e0;stop-opacity:1;"
         offset="0"
         id="stop3942" /><stop
         id="stop3966"
         offset="0.25"
         style="stop-color:#eaeaea;stop-opacity:0" /><stop
         id="stop3946"
         offset="0.5"
         style="stop-color:#eaeaea;stop-opacity:0;" /><stop
         style="stop-color:#eaeaea;stop-opacity:0"
         offset="0.61093622"
         id="stop3964" /><stop
         style="stop-color:#ffffff;stop-opacity:1;"
         offset="1"
         id="stop3944" /></linearGradient><radialGradient
       inkscape:collect="always"
       xlink:href="#linearGradient4091"
       id="radialGradient5470"
       gradientUnits="userSpaceOnUse"
       gradientTransform="matrix(1.3709985,0,0,1.3709985,-42.15308,-17.590792)"
       cx="106.12162"
       cy="38.931335"
       fx="106.12162"
       fy="38.931335"
       r="0.50525147" /><linearGradient
       id="linearGradient4091"><stop
         style="stop-color:#3f4d70;stop-opacity:1;"
         offset="0"
         id="stop4093" /><stop
         id="stop4103"
         offset="0.42095122"
         style="stop-color:#1b2931;stop-opacity:0.8745098;" /><stop
         id="stop4101"
         offset="0.45841205"
         style="stop-color:#1e3737;stop-opacity:0.74901962;" /><stop
         id="stop4099"
         offset="0.82001585"
         style="stop-color:#233f3f;stop-opacity:0.21287128" /><stop
         style="stop-color:#1b3131;stop-opacity:0;"
         offset="1"
         id="stop4095" /></linearGradient><linearGradient
       inkscape:collect="always"
       xlink:href="#linearGradient4006"
       id="linearGradient5472"
       gradientUnits="userSpaceOnUse"
       gradientTransform="translate(-2.9806938,-3.1473236)"
       x1="91.763588"
       y1="147.50906"
       x2="90.555496"
       y2="141.3089" /><linearGradient
       id="linearGradient4006"><stop
         style="stop-color:#5d5d5d;stop-opacity:1;"
         offset="0"
         id="stop4008" /><stop
         style="stop-color:#d1d1d1;stop-opacity:1;"
         offset="1"
         id="stop4010" /></linearGradient><linearGradient
       inkscape:collect="always"
       xlink:href="#linearGradient3782"
       id="linearGradient5474"
       gradientUnits="userSpaceOnUse"
       gradientTransform="translate(-2.7821159,-3.1473236)"
       x1="89.600899"
       y1="50.686657"
       x2="89.600899"
       y2="138.14758" /><linearGradient
       id="linearGradient3782"><stop
         style="stop-color:#444444;stop-opacity:1;"
         offset="0"
         id="stop3784" /><stop
         style="stop-color:#3c3c3c;stop-opacity:1;"
         offset="1"
         id="stop3786" /></linearGradient><linearGradient
       inkscape:collect="always"
       xlink:href="#linearGradient4055"
       id="linearGradient5476"
       gradientUnits="userSpaceOnUse"
       gradientTransform="translate(-2.7821159,-3.1473236)"
       x1="56.632095"
       y1="46.929672"
       x2="125.09087"
       y2="137.87556" /><linearGradient
       id="linearGradient4055"><stop
         style="stop-color:#b5b5b5;stop-opacity:0.69230771;"
         offset="0"
         id="stop4061" /><stop
         id="stop4065"
         offset="0.43670741"
         style="stop-color:#848484;stop-opacity:0.34509804;" /><stop
         id="stop4059"
         offset="1"
         style="stop-color:#545454;stop-opacity:0;" /></linearGradient></defs><sodipodi:namedview
     pagecolor="#ffffff"
     bordercolor="#666666"
     borderopacity="1"
     objecttolerance="10"
     gridtolerance="10"
     guidetolerance="10"
     inkscape:pageopacity="0"
     inkscape:pageshadow="2"
     inkscape:window-width="2560"
     inkscape:window-height="1369"
     id="namedview4"
     showgrid="false"
     inkscape:zoom="0.90655639"
     inkscape:cx="-324.03817"
     inkscape:cy="446.00447"
     inkscape:window-x="-9"
     inkscape:window-y="-9"
     inkscape:window-maximized="1"
     inkscape:current-layer="g10"
     fit-margin-top="5"
     fit-margin-left="5"
     fit-margin-bottom="5"
     fit-margin-right="5" /><g
     id="g10"
     inkscape:groupmode="layer"
     inkscape:label="ink_ext_XXXXXX"
     transform="matrix(1.25,0,0,-1.25,-121.60538,1300.781)"><g
       id="g5421"
       transform="matrix(5.5773421,0,0,-5.5773421,-222.40223,1210.6807)"><g
         id="g5393"><path
           inkscape:connector-curvature="0"
           id="rect4049"
           d="m 58.678748,54.647533 2.147244,0 c 0.356091,0 0.642764,0.286673 0.642764,0.642764 l 0,16.742115 c 0,0.356092 -0.286673,0.642764 -0.642764,0.642764 l -2.147244,0 c -0.356091,0 -0.642764,-0.286672 -0.642764,-0.642764 l 0,-16.742115 c 0,-0.356091 0.286673,-0.642764 0.642764,-0.642764 z"
           style="fill:url(#linearGradient5454);fill-opacity:1;stroke:none" /><path
           inkscape:connector-curvature="0"
           id="rect4025"
           d="m 116.33935,65.421737 2.14724,0 c 0.35609,0 0.64277,0.286673 0.64277,0.642764 l 0,9.145571 c 0,0.356092 -0.28668,0.642764 -0.64277,0.642764 l -2.14724,0 c -0.35609,0 -0.64276,-0.286672 -0.64276,-0.642764 l 0,-9.145571 c 0,-0.356091 0.28667,-0.642764 0.64276,-0.642764 z"
           style="fill:url(#linearGradient5456);fill-opacity:1;stroke:none" /><path
           inkscape:connector-curvature="0"
           id="rect3778"
           d="m 65.874432,31.696594 45.454758,0 c 3.70752,0 6.69226,2.984748 6.69226,6.692261 l 0,100.365475 c 0,3.70751 -2.98474,6.69226 -6.69226,6.69226 l -45.454758,0 c -3.707513,0 -6.692261,-2.98475 -6.692261,-6.69226 l 0,-100.365475 c 0,-3.707513 2.984748,-6.692261 6.692261,-6.692261 z"
           style="fill:url(#linearGradient5458);fill-opacity:1;stroke:none" /><path
           inkscape:connector-curvature="0"
           id="path3772"
           d="m 104.61183,35.78401 c 0,0.702684 -0.56964,1.272322 -1.27232,1.272322 -0.70269,0 -1.27233,-0.569638 -1.27233,-1.272322 0,-0.702683 0.56964,-1.272321 1.27233,-1.272321 0.70268,0 1.27232,0.569638 1.27232,1.272321 z"
           style="fill:url(#radialGradient5460);fill-opacity:1;stroke:none" /><path
           inkscape:connector-curvature="0"
           id="path3774"
           d="m 98.897543,35.78401 c 0,0.419145 -0.339784,0.758929 -0.758929,0.758929 -0.419145,0 -0.758928,-0.339784 -0.758928,-0.758929 0,-0.419145 0.339783,-0.758929 0.758928,-0.758929 0.419145,0 0.758929,0.339784 0.758929,0.758929 z"
           style="fill:#293238;fill-opacity:1;stroke:none" /><g
           id="g4800"><path
             inkscape:connector-curvature="0"
             id="rect3826"
             d="m 83.292494,35.159011 10.580358,0 c 0.34625,0 0.625,0.27875 0.625,0.625 0,0.34625 -0.27875,0.625 -0.625,0.625 l -10.580358,0 c -0.34625,0 -0.625,-0.27875 -0.625,-0.625 0,-0.34625 0.27875,-0.625 0.625,-0.625 z"
             style="fill:#838383;fill-opacity:1;stroke:none" /><path
             inkscape:connector-curvature="0"
             id="rect3848"
             d="m 83.292494,35.159011 10.580358,0 c 0.34625,0 0.625,0.27875 0.625,0.625 0,0.34625 -0.27875,0.625 -0.625,0.625 l -10.580358,0 c -0.34625,0 -0.625,-0.27875 -0.625,-0.625 0,-0.34625 0.27875,-0.625 0.625,-0.625 z"
             style="fill:url(#radialGradient5462);fill-opacity:1;stroke:none" /><path
             inkscape:connector-curvature="0"
             id="rect3824"
             d="m 83.28125,35.0625 c -0.39992,0 -0.71875,0.31883 -0.71875,0.71875 0,0.39992 0.31883,0.71875 0.71875,0.71875 l 10.59375,0 c 0.39992,0 0.71875,-0.31883 0.71875,-0.71875 0,-0.39992 -0.31883,-0.71875 -0.71875,-0.71875 l -10.59375,0 z m 0,0.1875 10.59375,0 c 0.29258,0 0.53125,0.23867 0.53125,0.53125 0,0.29258 -0.23867,0.53125 -0.53125,0.53125 l -10.59375,0 c -0.29258,0 -0.5,-0.23867 -0.5,-0.53125 0,-0.29258 0.20742,-0.53125 0.5,-0.53125 z"
             style="color:#000000;font-style:normal;font-variant:normal;font-weight:normal;font-stretch:normal;font-size:medium;line-height:normal;font-family:Sans;-inkscape-font-specification:Sans;text-indent:0;text-align:start;text-decoration:none;text-decoration-line:none;letter-spacing:normal;word-spacing:normal;text-transform:none;direction:ltr;block-progression:tb;writing-mode:lr-tb;baseline-shift:baseline;text-anchor:start;display:inline;overflow:visible;visibility:visible;fill:url(#linearGradient5464);fill-opacity:1;stroke:none;stroke-width:0.2;marker:none;enable-background:accumulate" /><g
             transform="translate(-2.9416735,-3.1473236)"
             id="g3896"><path
               transform="matrix(1.1423315,0,0,1.1423315,73.227831,-4.8624767)"
               style="fill:#4d4d4d;fill-opacity:1;stroke:none"
               d="m 20.4375,38.337219 c 0,0.120813 -0.09794,0.21875 -0.21875,0.21875 -0.120812,0 -0.21875,-0.09794 -0.21875,-0.21875 0,-0.120812 0.09794,-0.21875 0.21875,-0.21875 0.120812,0 0.21875,0.09794 0.21875,0.21875 z"
               id="path3880"
               inkscape:connector-curvature="0" /><path
               transform="matrix(1.1423315,0,0,1.1423315,72.027831,-4.8624767)"
               style="fill:#4d4d4d;fill-opacity:1;stroke:none"
               d="m 20.4375,38.337219 c 0,0.120813 -0.09794,0.21875 -0.21875,0.21875 -0.120812,0 -0.21875,-0.09794 -0.21875,-0.21875 0,-0.120812 0.09794,-0.21875 0.21875,-0.21875 0.120812,0 0.21875,0.09794 0.21875,0.21875 z"
               id="path3882"
               inkscape:connector-curvature="0" /><path
               transform="matrix(1.1423315,0,0,1.1423315,70.827831,-4.8624767)"
               style="fill:#4d4d4d;fill-opacity:1;stroke:none"
               d="m 20.4375,38.337219 c 0,0.120813 -0.09794,0.21875 -0.21875,0.21875 -0.120812,0 -0.21875,-0.09794 -0.21875,-0.21875 0,-0.120812 0.09794,-0.21875 0.21875,-0.21875 0.120812,0 0.21875,0.09794 0.21875,0.21875 z"
               id="path3884"
               inkscape:connector-curvature="0" /><path
               transform="matrix(1.1423315,0,0,1.1423315,69.627831,-4.8624767)"
               style="fill:#4d4d4d;fill-opacity:1;stroke:none"
               d="m 20.4375,38.337219 c 0,0.120813 -0.09794,0.21875 -0.21875,0.21875 -0.120812,0 -0.21875,-0.09794 -0.21875,-0.21875 0,-0.120812 0.09794,-0.21875 0.21875,-0.21875 0.120812,0 0.21875,0.09794 0.21875,0.21875 z"
               id="path3886"
               inkscape:connector-curvature="0" /><path
               transform="matrix(1.1423315,0,0,1.1423315,68.427831,-4.8624767)"
               style="fill:#4d4d4d;fill-opacity:1;stroke:none"
               d="m 20.4375,38.337219 c 0,0.120813 -0.09794,0.21875 -0.21875,0.21875 -0.120812,0 -0.21875,-0.09794 -0.21875,-0.21875 0,-0.120812 0.09794,-0.21875 0.21875,-0.21875 0.120812,0 0.21875,0.09794 0.21875,0.21875 z"
               id="path3888"
               inkscape:connector-curvature="0" /><path
               transform="matrix(1.1423315,0,0,1.1423315,67.227831,-4.8624767)"
               style="fill:#4d4d4d;fill-opacity:1;stroke:none"
               d="m 20.4375,38.337219 c 0,0.120813 -0.09794,0.21875 -0.21875,0.21875 -0.120812,0 -0.21875,-0.09794 -0.21875,-0.21875 0,-0.120812 0.09794,-0.21875 0.21875,-0.21875 0.120812,0 0.21875,0.09794 0.21875,0.21875 z"
               id="path3890"
               inkscape:connector-curvature="0" /><path
               transform="matrix(1.1423315,0,0,1.1423315,66.027831,-4.8624767)"
               style="fill:#4d4d4d;fill-opacity:1;stroke:none"
               d="m 20.4375,38.337219 c 0,0.120813 -0.09794,0.21875 -0.21875,0.21875 -0.120812,0 -0.21875,-0.09794 -0.21875,-0.21875 0,-0.120812 0.09794,-0.21875 0.21875,-0.21875 0.120812,0 0.21875,0.09794 0.21875,0.21875 z"
               id="path3892"
               inkscape:connector-curvature="0" /><path
               transform="matrix(1.1423315,0,0,1.1423315,64.827831,-4.8624767)"
               style="fill:#4d4d4d;fill-opacity:1;stroke:none"
               d="m 20.4375,38.337219 c 0,0.120813 -0.09794,0.21875 -0.21875,0.21875 -0.120812,0 -0.21875,-0.09794 -0.21875,-0.21875 0,-0.120812 0.09794,-0.21875 0.21875,-0.21875 0.120812,0 0.21875,0.09794 0.21875,0.21875 z"
               id="path3894"
               inkscape:connector-curvature="0" /><path
               transform="matrix(1.1423315,0,0,1.1423315,63.627831,-4.8624767)"
               style="fill:#4d4d4d;fill-opacity:1;stroke:none"
               d="m 20.4375,38.337219 c 0,0.120813 -0.09794,0.21875 -0.21875,0.21875 -0.120812,0 -0.21875,-0.09794 -0.21875,-0.21875 0,-0.120812 0.09794,-0.21875 0.21875,-0.21875 0.120812,0 0.21875,0.09794 0.21875,0.21875 z"
               id="path3872"
               inkscape:connector-curvature="0" /></g></g><path
           style="color:#000000;font-style:normal;font-variant:normal;font-weight:normal;font-stretch:normal;font-size:medium;line-height:normal;font-family:Sans;-inkscape-font-specification:Sans;text-indent:0;text-align:start;text-decoration:none;text-decoration-line:none;letter-spacing:normal;word-spacing:normal;text-transform:none;direction:ltr;block-progression:tb;writing-mode:lr-tb;baseline-shift:baseline;text-anchor:start;display:inline;overflow:visible;visibility:visible;fill:url(#linearGradient5466);fill-opacity:1;fill-rule:nonzero;stroke:none;stroke-width:0.30000001;marker:none;enable-background:accumulate"
           d="m 84.559262,138.35684 8.015572,0 c 0.993192,0 1.788334,0.79514 1.788334,1.78833 0,0.99319 -0.795141,1.78833 -1.788334,1.78833 l -8.015572,0 c -0.993193,0 -1.788334,-0.79514 -1.788334,-1.78833 0,-0.99319 0.795142,-1.78833 1.788334,-1.78833 z"
           id="rect3996"
           inkscape:connector-curvature="0"
           sodipodi:nodetypes="sssssss" /><path
           style="color:#000000;font-style:normal;font-variant:normal;font-weight:normal;font-stretch:normal;font-size:medium;line-height:normal;font-family:Sans;-inkscape-font-specification:Sans;text-indent:0;text-align:start;text-decoration:none;text-decoration-line:none;letter-spacing:normal;word-spacing:normal;text-transform:none;direction:ltr;block-progression:tb;writing-mode:lr-tb;baseline-shift:baseline;text-anchor:start;display:inline;overflow:visible;visibility:visible;fill:#5e5e5e;fill-opacity:1;stroke:none;stroke-width:0.09672061;marker:none;enable-background:accumulate"
           d="m 65.843751,32.176422 c -3.424039,0 -6.15625,2.763461 -6.15625,6.1875 l 0,100.406248 c 0,3.42404 2.732211,6.1875 6.15625,6.1875 l 45.499999,0 c 3.42404,0 6.1875,-2.76346 6.1875,-6.1875 l 0,-100.406248 c 0,-3.424039 -2.76346,-6.1875 -6.1875,-6.1875 l -45.499999,0 z m 0,0.09375 45.499999,0 c 3.37036,0 6.09375,2.723381 6.09375,6.09375 l 0,100.406248 c 0,3.37036 -2.72339,6.09375 -6.09375,6.09375 l -45.499999,0 c -3.370369,0 -6.0625,-2.72339 -6.0625,-6.09375 l 0,-100.406248 c 0,-3.370369 2.692131,-6.09375 6.0625,-6.09375 z"
           id="rect2998"
           inkscape:connector-curvature="0" /><path
           style="color:#000000;font-style:normal;font-variant:normal;font-weight:normal;font-stretch:normal;font-size:medium;line-height:normal;font-family:Sans;-inkscape-font-specification:Sans;text-indent:0;text-align:start;text-decoration:none;text-decoration-line:none;letter-spacing:normal;word-spacing:normal;text-transform:none;direction:ltr;block-progression:tb;writing-mode:lr-tb;baseline-shift:baseline;text-anchor:start;display:inline;overflow:visible;visibility:visible;fill:#858585;fill-opacity:1;stroke:none;stroke-width:1;marker:none;enable-background:accumulate"
           d="m 65.875001,31.207672 c -3.975864,0 -7.1875,3.211636 -7.1875,7.1875 l 0,100.343748 c 0,3.97586 3.211636,7.21875 7.1875,7.21875 l 45.468749,0 c 3.97587,0 7.1875,-3.24289 7.1875,-7.21875 l 0,-100.343748 c 0,-3.975864 -3.21163,-7.1875 -7.1875,-7.1875 l -45.468749,0 z m 0,1 45.468749,0 c 3.43917,0 6.1875,2.748338 6.1875,6.1875 l 0,100.343748 c 0,3.43916 -2.74833,6.21875 -6.1875,6.21875 l -45.468749,0 c -3.439162,0 -6.1875,-2.77959 -6.1875,-6.21875 l 0,-100.343748 c 0,-3.439162 2.748338,-6.1875 6.1875,-6.1875 z"
           id="rect3806"
           inkscape:connector-curvature="0" /><path
           style="color:#000000;font-style:normal;font-variant:normal;font-weight:normal;font-stretch:normal;font-size:medium;line-height:normal;font-family:Sans;-inkscape-font-specification:Sans;text-indent:0;text-align:start;text-decoration:none;text-decoration-line:none;letter-spacing:normal;word-spacing:normal;text-transform:none;direction:ltr;block-progression:tb;writing-mode:lr-tb;baseline-shift:baseline;text-anchor:start;display:inline;overflow:visible;visibility:visible;fill:#aeaeae;fill-opacity:1;stroke:none;stroke-width:0.40052411;marker:none;enable-background:accumulate"
           d="m 65.968751,31.426422 c -3.879146,0 -7,3.120854 -7,7 l 0,100.281248 c 0,3.87915 3.120854,7 7,7 l 45.249999,0 c 3.87915,0 7.03125,-3.12085 7.03125,-7 l 0,-100.281248 c 0,-3.879146 -3.1521,-7 -7.03125,-7 l -45.249999,0 z m 0,0.40625 45.249999,0 c 3.66419,0 6.625,2.929566 6.625,6.59375 l 0,100.281248 c 0,3.66419 -2.96081,6.59375 -6.625,6.59375 l -45.249999,0 c -3.664184,0 -6.59375,-2.92956 -6.59375,-6.59375 l 0,-100.281248 c 0,-3.664184 2.929566,-6.59375 6.59375,-6.59375 z"
           id="rect3924"
           inkscape:connector-curvature="0" /><path
           style="color:#000000;font-style:normal;font-variant:normal;font-weight:normal;font-stretch:normal;font-size:medium;line-height:normal;font-family:Sans;-inkscape-font-specification:Sans;text-indent:0;text-align:start;text-decoration:none;text-decoration-line:none;letter-spacing:normal;word-spacing:normal;text-transform:none;direction:ltr;block-progression:tb;writing-mode:lr-tb;baseline-shift:baseline;text-anchor:start;display:inline;overflow:visible;visibility:visible;opacity:0.70552147;fill:url(#linearGradient5468);fill-opacity:1;stroke:none;stroke-width:0.20159103;marker:none;enable-background:accumulate"
           d="m 66.093751,31.363922 c -3.97505,0 -7.1875,3.212451 -7.1875,7.1875 l 0,100.062498 c 0,3.97506 3.21245,7.15625 7.1875,7.15625 l 45.031249,0 c 3.97505,0 7.1875,-3.18119 7.1875,-7.15625 l 0,-100.062498 c 0,-3.975049 -3.21245,-7.1875 -7.1875,-7.1875 l -45.031249,0 z m 0,0.21875 45.031249,0 c 3.86685,0 6.96875,3.101895 6.96875,6.96875 l 0,100.062498 c 0,3.86686 -3.1019,6.96875 -6.96875,6.96875 l -45.031249,0 c -3.866856,0 -7,-3.10189 -7,-6.96875 l 0,-100.062498 c 0,-3.866855 3.133144,-6.96875 7,-6.96875 z"
           id="rect3804"
           inkscape:connector-curvature="0" /><path
           inkscape:connector-curvature="0"
           id="path4089"
           d="m 104.0322,35.78401 c 0,0.382567 -0.31014,0.6927 -0.6927,0.6927 -0.38256,0 -0.6927,-0.310133 -0.6927,-0.6927 0,-0.382566 0.31014,-0.692698 0.6927,-0.692698 0.38256,0 0.6927,0.310132 0.6927,0.692698 z"
           style="fill:url(#radialGradient5470);fill-opacity:1;stroke:none" /><path
           inkscape:connector-curvature="0"
           id="path4815"
           d="m 84.645173,138.08267 c -1.132914,0 -2.03125,0.92958 -2.03125,2.0625 0,1.13292 0.898337,2.03125 2.03125,2.03125 l 7.84375,0 c 1.132913,0 2.0625,-0.89833 2.0625,-2.03125 0,-1.13292 -0.929586,-2.0625 -2.0625,-2.0625 l -7.84375,0 z m 0,0.3125 7.84375,0 c 0.971902,0 1.75,0.7781 1.75,1.75 0,0.9719 -0.778097,1.75 -1.75,1.75 l -7.84375,0 c -0.971903,0 -1.75,-0.7781 -1.75,-1.75 0,-0.9719 0.778098,-1.75 1.75,-1.75 z"
           style="color:#000000;font-style:normal;font-variant:normal;font-weight:normal;font-stretch:normal;font-size:medium;line-height:normal;font-family:Sans;-inkscape-font-specification:Sans;text-indent:0;text-align:start;text-decoration:none;text-decoration-line:none;letter-spacing:normal;word-spacing:normal;text-transform:none;direction:ltr;block-progression:tb;writing-mode:lr-tb;baseline-shift:baseline;text-anchor:start;display:inline;overflow:visible;visibility:visible;fill:url(#linearGradient5472);fill-opacity:1;fill-rule:nonzero;stroke:none;stroke-width:0.30000001;marker:none;enable-background:accumulate" /></g><g
         id="g5384"><path
           inkscape:connector-curvature="0"
           id="rect4051"
           d="m 62.815275,42.410877 51.573075,0 c 0.40515,0 0.73132,0.326168 0.73132,0.731317 l 0,90.858786 c 0,0.40515 -0.32617,0.73132 -0.73132,0.73132 l -51.573075,0 c -0.40515,0 -0.731317,-0.32617 -0.731317,-0.73132 l 0,-90.858786 c 0,-0.405149 0.326167,-0.731317 0.731317,-0.731317 z"
           style="fill:url(#linearGradient5474);fill-opacity:1;stroke:none" /><path
           inkscape:connector-curvature="0"
           id="rect3780"
           d="m 62.815275,42.410877 51.573075,0 c 0.40515,0 0.73132,0.326168 0.73132,0.731317 l 0,90.858786 c 0,0.40515 -0.32617,0.73132 -0.73132,0.73132 l -51.573075,0 c -0.40515,0 -0.731317,-0.32617 -0.731317,-0.73132 l 0,-90.858786 c 0,-0.405149 0.326167,-0.731317 0.731317,-0.731317 z"
           style="fill:url(#linearGradient5476);fill-opacity:1;stroke:none" /><path
           style="color:#000000;font-style:normal;font-variant:normal;font-weight:normal;font-stretch:normal;font-size:medium;line-height:normal;font-family:Sans;-inkscape-font-specification:Sans;text-indent:0;text-align:start;text-decoration:none;text-decoration-line:none;letter-spacing:normal;word-spacing:normal;text-transform:none;direction:ltr;block-progression:tb;writing-mode:lr-tb;baseline-shift:baseline;text-anchor:start;display:inline;overflow:visible;visibility:visible;fill:#5c5c5c;fill-opacity:1;stroke:none;stroke-width:0.30000001;marker:none;enable-background:accumulate"
           d="m 62.812501,42.270172 c -0.485655,0 -0.875,0.389346 -0.875,0.875 l 0,90.843748 c 0,0.48566 0.389344,0.90625 0.875,0.90625 l 51.562499,0 c 0.48566,0 0.90625,-0.42059 0.90625,-0.90625 l 0,-90.843748 c 0,-0.485655 -0.42059,-0.875 -0.90625,-0.875 l -51.562499,0 z m 0,0.28125 51.562499,0 c 0.32464,0 0.59375,0.269107 0.59375,0.59375 l 0,90.843748 c 0,0.32464 -0.26911,0.59375 -0.59375,0.59375 l -51.562499,0 c -0.324644,0 -0.59375,-0.26911 -0.59375,-0.59375 l 0,-90.843748 c 0,-0.324644 0.269105,-0.59375 0.59375,-0.59375 z"
           id="rect3768"
           inkscape:connector-curvature="0" /></g></g></g></svg>